<svg width="8" height="8" viewBox="0 0 8 8" fill="none" xmlns="http://www.w3.org/2000/svg">
<path d="M4.00215 0.523438C3.31413 0.523438 2.64155 0.72746 2.06948 1.10971C1.49741 1.49195 1.05154 2.03525 0.78824 2.6709C0.524945 3.30655 0.456055 4.00601 0.590281 4.68081C0.724508 5.35561 1.05582 5.97546 1.54233 6.46197C2.02884 6.94847 2.64868 7.27979 3.32349 7.41401C3.99829 7.54824 4.69774 7.47935 5.33339 7.21605C5.96904 6.95276 6.51234 6.50689 6.89459 5.93481C7.27683 5.36274 7.48086 4.69017 7.48086 4.00215C7.48086 3.07954 7.11435 2.19471 6.46197 1.54233C5.80958 0.889944 4.92476 0.523438 4.00215 0.523438ZM4.00215 6.26021C3.55555 6.26021 3.11897 6.12778 2.74764 5.87966C2.3763 5.63154 2.08688 5.27888 1.91597 4.86627C1.74506 4.45366 1.70034 3.99964 1.78747 3.56162C1.8746 3.1236 2.08966 2.72125 2.40546 2.40545C2.72125 2.08966 3.1236 1.8746 3.56162 1.78747C3.99964 1.70034 4.45367 1.74506 4.86627 1.91597C5.27888 2.08687 5.63154 2.3763 5.87966 2.74763C6.12778 3.11897 6.26021 3.55554 6.26021 4.00215C6.26021 4.60102 6.02231 5.17537 5.59884 5.59884C5.17537 6.02231 4.60102 6.26021 4.00215 6.26021Z" fill="black"/>
</svg>
